<?xml version="1.0" encoding="UTF-8" standalone="no"?>
<!-- Created with Inkscape (http://www.inkscape.org/) -->

<svg
   width="210.0mm"
   height="297.0mm"
   viewBox="0 0 210.0 297.0"
   version="1.1"
   id="SVGRoot"
   sodipodi:docname="ddddddd.svg"
   inkscape:version="1.1.2 (b8e25be833, 2022-02-05)"
   xmlns:inkscape="http://www.inkscape.org/namespaces/inkscape"
   xmlns:sodipodi="http://sodipodi.sourceforge.net/DTD/sodipodi-0.dtd"
   xmlns="http://www.w3.org/2000/svg"
   xmlns:svg="http://www.w3.org/2000/svg">
  <sodipodi:namedview
     id="namedview1168"
     pagecolor="#505050"
     bordercolor="#eeeeee"
     borderopacity="1"
     inkscape:pageshadow="0"
     inkscape:pageopacity="0"
     inkscape:pagecheckerboard="0"
     inkscape:document-units="mm"
     showgrid="false"
     inkscape:zoom="1.0179639"
     inkscape:cx="442.18924"
     inkscape:cy="390.40326"
     inkscape:window-width="1920"
     inkscape:window-height="1001"
     inkscape:window-x="-9"
     inkscape:window-y="-9"
     inkscape:window-maximized="1"
     inkscape:current-layer="layer1"
     showguides="true"
     inkscape:guide-bbox="true"
     inkscape:snap-global="false"
     inkscape:rotation="-1">
    <sodipodi:guide
       position="28.211324,194.49273"
       orientation="0,-1"
       id="guide1834" />
    <sodipodi:guide
       position="33.26547,235.15564"
       orientation="1,0"
       id="guide1836" />
    <sodipodi:guide
       position="28.25727,236.62593"
       orientation="0,-1"
       id="guide1838" />
    <sodipodi:guide
       position="13.320605,247.74626"
       orientation="0,-1"
       id="guide1771" />
    <sodipodi:guide
       position="13.385584,247.74626"
       orientation="1,0"
       id="guide1773" />
    <sodipodi:guide
       position="17.659775,274.68742"
       orientation="0,-1"
       id="guide7473" />
  </sodipodi:namedview>
  <defs
     id="defs1163">
    <rect
       x="234.61238"
       y="54.967374"
       width="203.68883"
       height="53.111665"
       id="rect5906" />
  </defs>
  <g
     inkscape:label="Layer 1"
     inkscape:groupmode="layer"
     id="layer1">
    <g
       id="panel2136"
       style="fill:none">
      <path
         style="fill:none;stroke:#000000;stroke-width:1"
         d="M 46.35 120.8 L 60.3625 120.8 L 60.3625 117.7 L 70.5125 117.7 L 70.5125 120.8 L 84.45 120.8 L 84.45 117.7 L 94.6 117.7 L 94.6 120.8 L 108.537 120.8 L 108.537 117.7 L 118.687 117.7 L 118.687 120.8 L 132.7 120.8"
         id="path1590" />
      <path
         style="fill:none;stroke:#000000;stroke-width:1"
         d="M 132.7 120.8 L 132.7 130.95 L 129.6 130.95 L 129.6 140.8 L 132.7 140.8 L 132.7 150.95"
         id="path1592" />
      <path
         style="fill:none;stroke:#000000;stroke-width:1"
         d="M 132.7 150.95 L 118.687 150.95 L 118.687 150.95 L 108.537 150.95 L 108.537 150.95 L 94.6 150.95 L 94.6 150.95 L 84.45 150.95 L 84.45 150.95 L 70.5125 150.95 L 70.5125 150.95 L 60.3625 150.95 L 60.3625 150.95 L 46.35 150.95"
         id="path1594" />
      <path
         style="fill:none;stroke:#000000;stroke-width:1"
         d="M 46.35 150.95 L 46.35 140.8 L 49.45 140.8 L 49.45 130.95 L 46.35 130.95 L 46.35 120.8"
         id="path1596" />
    </g>
    <g
       id="panel182"
       style="fill:none">
      <path
         style="fill:none;stroke:#000000;stroke-width:1"
         d="M 8.1 49.45 L 18.1 49.45 L 18.1 46.35 L 28.25 46.35 L 28.25 49.45 L 38.25 49.45"
         id="path1599" />
      <path
         style="fill:none;stroke:#000000;stroke-width:1"
         d="M 38.25 49.45 L 38.25 61.725 L 41.35 61.725 L 41.35 71.875 L 38.25 71.875 L 38.25 87.175 L 41.35 87.175 L 41.35 97.325 L 38.25 97.325 L 38.25 109.6"
         id="path1601" />
      <path
         style="fill:none;stroke:#000000;stroke-width:1"
         d="M 38.25 109.6 L 28.25 109.6 L 28.25 112.7 L 18.1 112.7 L 18.1 109.6 L 8.1 109.6"
         id="path1603" />
      <path
         style="fill:none;stroke:#000000;stroke-width:1"
         d="M 8.1 109.6 L 8.1 97.325 L 8.1 97.325 L 8.1 87.175 L 8.1 87.175 L 8.1 71.875 L 8.1 71.875 L 8.1 61.725 L 8.1 61.725 L 8.1 49.45"
         id="path1605" />
    </g>
    <g
       id="panel4934"
       style="fill:none">
      <path
         style="fill:none;stroke:#000000;stroke-width:1"
         d="M 46.35 46.35 L 60.5125 46.35 L 60.5125 49.45 L 70.3625 49.45 L 70.3625 46.35 L 84.6 46.35 L 84.6 49.45 L 94.45 49.45 L 94.45 46.35 L 108.687 46.35 L 108.687 49.45 L 118.537 49.45 L 118.537 46.35 L 132.7 46.35"
         id="path1608" />
      <path
         style="fill:none;stroke:#000000;stroke-width:1"
         d="M 132.7 46.35 L 132.7 61.875 L 129.6 61.875 L 129.6 71.725 L 132.7 71.725 L 132.7 87.325 L 129.6 87.325 L 129.6 97.175 L 132.7 97.175 L 132.7 112.7"
         id="path1610" />
      <path
         style="fill:none;stroke:#000000;stroke-width:1"
         d="M 132.7 112.7 L 118.537 112.7 L 118.537 109.6 L 108.687 109.6 L 108.687 112.7 L 94.45 112.7 L 94.45 109.6 L 84.6 109.6 L 84.6 112.7 L 70.3625 112.7 L 70.3625 109.6 L 60.5125 109.6 L 60.5125 112.7 L 46.35 112.7"
         id="path1612" />
      <path
         style="fill:none;stroke:#000000;stroke-width:1"
         d="M 46.35 112.7 L 46.35 97.175 L 49.45 97.175 L 49.45 87.325 L 46.35 87.325 L 46.35 71.725 L 49.45 71.725 L 49.45 61.875 L 46.35 61.875 L 46.35 46.35"
         id="path1614" />
    </g>
    <g
       id="panel5974"
       style="fill:none">
      <path
         style="fill:none;stroke:#000000;stroke-width:1"
         d="M 140.8 49.45 L 150.8 49.45 L 150.8 46.35 L 160.95 46.35 L 160.95 49.45 L 170.95 49.45"
         id="path1617" />
      <path
         style="fill:none;stroke:#000000;stroke-width:1"
         d="M 170.95 49.45 L 170.95 61.725 L 170.95 61.725 L 170.95 71.875 L 170.95 71.875 L 170.95 87.175 L 170.95 87.175 L 170.95 97.325 L 170.95 97.325 L 170.95 109.6"
         id="path1619" />
      <path
         style="fill:none;stroke:#000000;stroke-width:1"
         d="M 170.95 109.6 L 160.95 109.6 L 160.95 112.7 L 150.8 112.7 L 150.8 109.6 L 140.8 109.6"
         id="path1621" />
      <path
         style="fill:none;stroke:#000000;stroke-width:1"
         d="M 140.8 109.6 L 140.8 97.325 L 137.7 97.325 L 137.7 87.175 L 140.8 87.175 L 140.8 71.875 L 137.7 71.875 L 137.7 61.725 L 140.8 61.725 L 140.8 49.45"
         id="path1623" />
    </g>
    <g
       id="panel6616"
       style="fill:none">
      <path
         style="fill:none;stroke:#000000;stroke-width:1"
         d="M 46.35 8.1 L 60.3625 8.1 L 60.3625 8.1 L 70.5125 8.1 L 70.5125 8.1 L 84.45 8.1 L 84.45 8.1 L 94.6 8.1 L 94.6 8.1 L 108.537 8.1 L 108.537 8.1 L 118.687 8.1 L 118.687 8.1 L 132.7 8.1"
         id="path1626" />
      <path
         style="fill:none;stroke:#000000;stroke-width:1"
         d="M 132.7 8.1 L 132.7 18.25 L 129.6 18.25 L 129.6 28.1 L 132.7 28.1 L 132.7 38.25"
         id="path1628" />
      <path
         style="fill:none;stroke:#000000;stroke-width:1"
         d="M 132.7 38.25 L 118.687 38.25 L 118.687 41.35 L 108.537 41.35 L 108.537 38.25 L 94.6 38.25 L 94.6 41.35 L 84.45 41.35 L 84.45 38.25 L 70.5125 38.25 L 70.5125 41.35 L 60.3625 41.35 L 60.3625 38.25 L 46.35 38.25"
         id="path1630" />
      <path
         style="fill:none;stroke:#000000;stroke-width:1"
         d="M 46.35 38.25 L 46.35 28.1 L 49.45 28.1 L 49.45 18.25 L 46.35 18.25 L 46.35 8.1"
         id="path1632" />
    </g>
    <rect
       style="fill:none;fill-opacity:0;stroke:#000000;stroke-width:0.7;stroke-miterlimit:4;stroke-dasharray:none"
       id="rect1862"
       width="13"
       height="14"
       x="20.265471"
       y="60.374069" />
    <rect
       style="fill:none;fill-opacity:0;stroke:#000000;stroke-width:0.7;stroke-miterlimit:4;stroke-dasharray:none"
       id="rect1988"
       width="11"
       height="11"
       x="22.265472"
       y="91.507271" />
    <path
       id="rect873"
       style="fill:none;fill-opacity:0;stroke:#000000;stroke-width:0.959141"
       d="m 175.43405,143.12522 v 13.30616 h -26.51154 v 12.09229 H 81.831975 l -1.01083,-1.01083 -1.610158,1.01083 v 25.02173 l 1.702048,1.28651 1.42435,-1.28651 h 66.769085 v 11.9264 h 26.32758 v 14.37225 h 7.62281 v -76.71883 z"
       sodipodi:nodetypes="ccccccccccccccccc" />
    <rect
       style="fill:none;fill-opacity:0;stroke:#000000;stroke-width:0.594353"
       id="rect1388"
       width="2.5056465"
       height="28.405647"
       x="13.362123"
       y="65.322174" />
    <rect
       style="fill:none;fill-opacity:0;stroke:#000000;stroke-width:0.502883"
       id="rect1390"
       width="2.5971165"
       height="49.4142"
       x="161.91832"
       y="54.817902" />
    <text
       xml:space="preserve"
       transform="scale(0.26458333)"
       id="text5904"
       style="fill:black;fill-opacity:1;line-height:1.25;stroke:none;font-family:sans-serif;font-style:normal;font-weight:normal;font-size:40px;white-space:pre;shape-inside:url(#rect5906)" />
    <g
       aria-label="Jóhann"
       id="text6528"
       style="font-size:10.5833px;line-height:1.25;stroke-width:0.264583">
      <path
         d="m 103.21479,182.09136 q 0,1.01286 -0.62011,1.56062 -0.61495,0.54777 -1.65364,0.54777 -0.24805,0 -0.66146,-0.0465 -0.413411,-0.0413 -0.692463,-0.10335 v -0.95601 h 0.05684 q 0.211872,0.0724 0.521929,0.14986 0.31006,0.0775 0.63562,0.0775 0.47542,0 0.75447,-0.10852 0.28422,-0.10852 0.41858,-0.31006 0.13953,-0.20671 0.1757,-0.50643 0.0413,-0.29972 0.0413,-0.69246 v -4.49067 h -1.6278 v -0.81648 h 2.65099 z"
         id="path7362"
         style="fill:#ff0000" />
      <path
         d="m 110.04639,181.2077 q 0,1.41076 -0.72346,2.22724 -0.72347,0.81649 -1.93786,0.81649 -1.22473,0 -1.9482,-0.81649 -0.7183,-0.81648 -0.7183,-2.22724 0,-1.41077 0.7183,-2.22725 0.72347,-0.82165 1.9482,-0.82165 1.21439,0 1.93786,0.82165 0.72346,0.81648 0.72346,2.22725 z m -1.00252,0 q 0,-1.12138 -0.43924,-1.66398 -0.43925,-0.54777 -1.21956,-0.54777 -0.79065,0 -1.2299,0.54777 -0.43408,0.5426 -0.43408,1.66398 0,1.0852 0.43925,1.64847 0.43925,0.5581 1.22473,0.5581 0.77514,0 1.21439,-0.55293 0.44441,-0.55811 0.44441,-1.65364 z m -0.0517,-5.77741 -1.41076,1.93269 h -0.76998 l 0.925,-1.93269 z"
         id="path7364"
         style="fill:#ff0000" />
      <path
         d="m 116.37674,184.09123 h -0.97152 v -3.28661 q 0,-0.39791 -0.0465,-0.74414 -0.0465,-0.3514 -0.17053,-0.54777 -0.12919,-0.21704 -0.37207,-0.32039 -0.24288,-0.10852 -0.63045,-0.10852 -0.3979,0 -0.83199,0.19637 -0.43408,0.19637 -0.83198,0.50126 v 4.3098 h -0.97152 v -8.04082 h 0.97152 v 2.90937 q 0.45475,-0.37724 0.9405,-0.58911 0.48576,-0.21187 0.99736,-0.21187 0.93534,0 1.42626,0.56327 0.49093,0.56327 0.49093,1.62263 z"
         id="path7366"
         style="fill:#ff0000" />
      <path
         d="m 122.73292,184.09123 h -0.96635 v -0.61495 q -0.12919,0.0879 -0.3514,0.24805 -0.21704,0.15503 -0.42374,0.24805 -0.24288,0.11885 -0.55811,0.19637 -0.31522,0.0827 -0.73897,0.0827 -0.78031,0 -1.32291,-0.51676 -0.5426,-0.51677 -0.5426,-1.31775 0,-0.65629 0.27905,-1.05936 0.28422,-0.40824 0.80615,-0.64079 0.5271,-0.23254 1.26607,-0.31522 0.73897,-0.0827 1.58646,-0.12403 v -0.14986 q 0,-0.33073 -0.11886,-0.54777 -0.11368,-0.21704 -0.33072,-0.34106 -0.20671,-0.11885 -0.4961,-0.1602 -0.28938,-0.0413 -0.60461,-0.0413 -0.3824,0 -0.85266,0.10336 -0.47025,0.0982 -0.97151,0.28938 h -0.0517 v -0.98701 q 0.28422,-0.0775 0.82166,-0.17054 0.53743,-0.093 1.05936,-0.093 0.60978,0 1.05936,0.10335 0.45475,0.0982 0.78548,0.34106 0.32556,0.23771 0.49609,0.61495 0.17054,0.37724 0.17054,0.93534 z m -0.96635,-1.4211 V 181.063 q -0.44442,0.0258 -1.04903,0.0775 -0.59944,0.0517 -0.95084,0.14986 -0.41858,0.11885 -0.67696,0.37207 -0.25838,0.24804 -0.25838,0.68729 0,0.49609 0.29972,0.74931 0.29972,0.24804 0.91467,0.24804 0.51159,0 0.93534,-0.19637 0.42375,-0.20153 0.78548,-0.48059 z"
         id="path7368"
         style="fill:#ff0000" />
      <path
         d="m 129.43016,184.09123 h -0.97151 v -3.28661 q 0,-0.39791 -0.0465,-0.74414 -0.0465,-0.3514 -0.17053,-0.54777 -0.12919,-0.21704 -0.37207,-0.32039 -0.24288,-0.10852 -0.63045,-0.10852 -0.39791,0 -0.83199,0.19637 -0.43408,0.19637 -0.83199,0.50126 v 4.3098 h -0.97151 v -5.77224 h 0.97151 v 0.64079 q 0.45475,-0.37724 0.94051,-0.58911 0.48576,-0.21187 0.99735,-0.21187 0.93534,0 1.42627,0.56327 0.49092,0.56327 0.49092,1.62263 z"
         id="path7370"
         style="fill:#ff0000" />
      <path
         d="m 136.12741,184.09123 h -0.97152 v -3.28661 q 0,-0.39791 -0.0465,-0.74414 -0.0465,-0.3514 -0.17053,-0.54777 -0.12919,-0.21704 -0.37207,-0.32039 -0.24288,-0.10852 -0.63045,-0.10852 -0.39791,0 -0.83199,0.19637 -0.43408,0.19637 -0.83198,0.50126 v 4.3098 h -0.97152 v -5.77224 h 0.97152 v 0.64079 q 0.45475,-0.37724 0.9405,-0.58911 0.48576,-0.21187 0.99736,-0.21187 0.93534,0 1.42626,0.56327 0.49093,0.56327 0.49093,1.62263 z"
         id="path7372"
         style="fill:#ff0000" />
    </g>
  </g>
</svg>
