<?xml version="1.0" encoding="UTF-8" standalone="no"?>
<!-- Created with Inkscape (http://www.inkscape.org/) -->

<svg
   width="297mm"
   height="210mm"
   viewBox="0 0 1122.5197 793.70081"
   version="1.1"
   id="svg5"
   inkscape:version="1.1.2 (b8e25be833, 2022-02-05)"
   sodipodi:docname="drawing.svg"
   inkscape:export-filename="C:\Users\johan\OneDrive\Desktop\drawing.png"
   inkscape:export-xdpi="96"
   inkscape:export-ydpi="96"
   xmlns:inkscape="http://www.inkscape.org/namespaces/inkscape"
   xmlns:sodipodi="http://sodipodi.sourceforge.net/DTD/sodipodi-0.dtd"
   xmlns="http://www.w3.org/2000/svg"
   xmlns:svg="http://www.w3.org/2000/svg">
  <sodipodi:namedview
     id="namedview7"
     pagecolor="#505050"
     bordercolor="#eeeeee"
     borderopacity="1"
     inkscape:pageshadow="0"
     inkscape:pageopacity="0"
     inkscape:pagecheckerboard="0"
     inkscape:document-units="mm"
     showgrid="false"
     inkscape:lockguides="true"
     inkscape:zoom="0.50900794"
     inkscape:cx="857.55048"
     inkscape:cy="507.85063"
     inkscape:window-width="1920"
     inkscape:window-height="1001"
     inkscape:window-x="-9"
     inkscape:window-y="-9"
     inkscape:window-maximized="1"
     inkscape:current-layer="layer1" />
  <defs
     id="defs2">
    <rect
       x="286.83246"
       y="339.87682"
       width="632.6031"
       height="176.81453"
       id="rect9196" />
  </defs>
  <g
     inkscape:label="Layer 1"
     inkscape:groupmode="layer"
     id="layer1">
    <text
       xml:space="preserve"
       id="text9194"
       style="fill:black;fill-opacity:1;line-height:1.25;stroke:none;font-family:sans-serif;font-style:normal;font-weight:normal;font-size:40px;white-space:pre;shape-inside:url(#rect9196)" />
    <path
       id="rect12458"
       style="fill:#ff0000;stroke:#ffcc00"
       d="m 468.55859,230.8418 c -2.51492,0 -4.987,0.16162 -7.43164,0.41211 -0.39418,0.76831 -1.05853,1.4761 -1.375,1.93359 -0.17533,0.12736 -0.28676,0.20964 -0.41211,0.30273 -0.29017,1.01722 -1.59355,1.73114 -3.58789,1.09961 -0.15409,-0.0488 -0.30724,-0.10039 -0.46093,-0.15039 -0.17283,0.0631 -0.30426,0.13628 -0.55274,0.19336 0.25122,0.50887 0.33762,1.05582 -0.11719,1.59961 -1.20863,1.44514 -3.14806,1.69465 -4.8164,2.05469 -0.87022,0.19909 -1.67053,0.2351 -2.46094,-0.0898 l -0.008,0.004 c -0.10548,0.008 -0.21096,-0.001 -0.31641,0.006 1.92055,0.93921 1.93495,0.75768 4.17188,1.11719 4.07341,0.65465 3.41325,4.76989 -0.66016,4.11523 -1.00239,-0.1611 -2.10061,-0.21687 -3.06836,-0.53906 -0.64094,-0.21339 -1.91332,-0.79706 -2.41016,-1.01562 -0.54667,-0.28506 -1.10171,-0.55215 -1.64453,-0.84375 -0.25031,0.51596 -0.62978,1.03862 -1.33008,1.52343 -0.75214,0.52095 -1.45142,1.12604 -2.25585,1.5625 -1.41918,0.77001 -5.18742,2.60319 -8.67579,4.25 -0.39583,1.326 -1.04187,2.14301 -1.10546,1.06055 -0.002,0.002 -0.002,0.004 -0.004,0.006 -0.3473,0.3473 -0.67739,0.71087 -1.04102,1.04102 -0.8145,0.7392 -1.49647,1.26017 -2.49804,1.42187 -0.0436,0.0609 -0.0883,0.12098 -0.14258,0.17187 -0.99097,0.93404 -1.82486,1.20638 -3.06836,1.77149 -0.25179,0.11502 -0.33627,0.11994 -0.51172,0.20117 -0.18081,0.21694 -0.3346,0.38935 -0.46094,0.49805 -0.0855,0.5374 -0.37684,1.05922 -1.02929,1.58789 -1.95807,1.58657 -1.87294,-0.77805 -1.77344,0.95312 -0.44207,0.30414 -0.88893,0.60105 -1.32617,0.91211 -0.61099,0.43469 -1.21504,0.87894 -1.81836,1.32422 -0.38269,0.28244 -0.73658,0.60844 -1.14063,0.85938 -1.77007,1.09933 -3.664,1.88989 -5.5625,2.72656 -0.16675,-0.7224 -1.49929,1.23638 -1.87695,0.6875 -0.0278,-0.0404 -0.0499,-0.0838 -0.0762,-0.125 -0.0937,0.0475 -0.33111,0.0791 -0.77735,0.1543 -0.0732,0.0563 -0.30113,0.0532 -0.55468,0.0312 -0.0627,0.0397 -0.11832,0.0901 -0.18164,0.1289 -0.53407,0.32757 -1.08356,0.62871 -1.63868,0.91992 -8.52843,12.44126 -13.60156,27.44392 -13.60156,43.73438 v 88.42383 c 2.97114,0.78888 6.01944,1.28074 8.81055,2.58203 0.12976,-0.0957 0.28274,-0.15074 0.46094,-0.16406 0.35553,-0.0266 0.79597,0.092 1.26562,0.25976 -0.29888,-0.0587 -0.66444,0.0128 -1.07617,0.18164 0.666,0.24815 1.3534,0.46326 2.02734,0.69727 -0.15831,-0.32545 -0.34862,-0.59917 -0.61133,-0.7461 0.78713,0.30687 1.6179,0.68795 2.27735,0.77735 0.66459,0.47625 0.9003,0.64099 1.39258,0.99023 0.0104,0.002 0.0169,0.003 0.0273,0.006 0.0937,0.0222 0.16829,0.0749 0.24805,0.11914 4.34686,1.44822 8.69004,2.92595 12.57812,5.35742 4.09927,4.42345 -0.59265,-1.39029 2.32227,6.48438 0.3468,0.93692 0.11385,-2.0019 0.0351,-2.99805 -0.0522,-0.68289 -1.78754,-1.84071 -0.21875,-1.22265 2.51482,1.21073 4.74079,2.85336 6.93946,4.53906 0.78296,0.15082 1.47826,0.74795 2.07031,1.53711 0.7922,0.59615 1.56474,1.22085 2.38672,1.77344 0.5654,0.1922 0.60944,0.23479 0.19531,0.004 0.73654,0.40993 1.53666,0.72009 2.20899,1.22852 0.49122,0.37189 0.75886,0.98688 1.23632,1.37695 0.21807,0.17816 -0.4952,-0.44704 -0.4375,-0.72266 0.0407,-0.19462 0.35408,0.17934 0.53125,0.26954 0.82625,0.77107 1.52987,1.58043 2.16993,2.42187 0.49499,-0.76592 1.11591,-1.46036 1.79687,-2.05664 0.0552,-0.0484 0.11753,-0.0632 0.18555,-0.0566 0.20405,0.0198 0.45157,0.23309 0.65625,0.31445 2.07492,0.82481 -0.54787,0.16354 2.95507,1.15039 0.13273,0.0374 0.26648,0.0707 0.4004,0.10352 0.0215,-0.0984 0.0351,-0.19874 0.0645,-0.29492 -0.52703,-1.73177 0.33764,-2.91255 1.50781,-2.9375 0.47721,-0.0102 1.00402,0.17326 1.50977,0.58789 h 0.002 c 0.56862,0.12287 1.28459,0.34364 1.79688,0.50586 0.39158,-0.0128 0.78256,0.13917 1.17187,0.35156 2.21321,0.62007 1.06653,0.2584 5.13477,2.32422 0.89021,0.53656 1.787,1.06286 2.66992,1.61133 0.40167,0.24952 0.79881,0.50589 1.1914,0.76953 0.0265,0.0139 0.0532,0.0268 0.0801,0.041 0.31623,3.4e-4 0.63301,0.003 0.94922,0.006 0.0312,-0.4767 0.39281,-0.81933 0.89453,-0.81445 0.34945,0.003 0.76627,0.17499 1.17969,0.58203 0.55109,0.54259 -0.11192,-0.1337 -0.11524,0.23633 0.0126,-0.002 0.0224,-0.002 0.0215,0.008 -0.002,0.0167 -0.002,0.0324 -0.004,0.0488 0.002,0.0219 0.0298,0.0848 0.0332,0.10937 0.0235,0.006 0.0524,0.0138 0.0742,0.0195 0.42488,-0.0477 0.85671,0.19654 1.23047,0.57031 0.0251,0.025 0.0161,0.0734 0.0371,0.10156 0.0921,-0.003 0.17354,-0.006 0.23438,-0.002 0.005,-0.23048 0.0123,-0.38587 0.0215,-0.4043 0.009,-0.0182 0.0201,0.10139 0.0332,0.41016 0.23161,0.0338 0.19404,0.19661 0.11914,0.76172 0.0576,0.0233 0.0443,-0.003 0.59179,0.34375 0.11803,0.12709 0.29017,0.22031 0.35547,0.38085 0.062,0.15264 0.26475,0.63927 0.28321,1.07618 0.40051,0.28739 0.81102,0.55989 1.21679,0.83984 0.12813,0.12486 0.31496,0.29741 0.48828,0.45703 -0.12165,0.0446 -0.24442,0.0899 -0.42578,0.16602 -0.84084,0.35274 -0.83359,0.34116 -1.16406,0.45508 0.17518,0.18164 0.34919,0.36451 0.52344,0.54687 0.46008,-0.34787 1.0151,-0.7723 1.26562,-0.98437 -0.0718,-0.0686 -0.12653,-0.11832 -0.19531,-0.18165 0.55234,-0.20192 0.53042,-0.10235 0.19531,0.18165 v 0.0117 c 0.77942,0.74459 1.54364,1.76503 0.8711,2.85938 0.76184,0.72774 0.59181,0.68247 1.29687,1.54102 0.52867,0.64365 1.11291,1.23473 1.64453,1.875 0.0295,0.0489 0.0466,0.0764 0.0703,0.11523 0.31031,-0.0482 0.47371,0.0878 0.2793,0.64062 -0.0498,0.14151 -0.002,0.39053 -0.14844,0.42383 -0.80254,0.18299 -1.36094,0.0761 -1.67382,-0.0117 0.37546,0.48253 0.69549,0.97096 0.90039,1.45899 0.61558,0.31008 1.19777,0.68434 1.79687,1.02539 1.53503,1.49044 1.55349,1.47064 2.07422,2.25781 1.14822,0.47509 2.29672,0.94766 3.44531,1.42188 4.96565,4.42909 8.31677,10.53392 11.81446,16.08593 1.86897,2.96668 9.78972,15.76137 10.63085,17.11914 3.04027,4.91513 4.40941,7.13168 6.33594,10.47852 h 106.10938 c -0.81307,-0.13564 -1.62369,-0.30238 -2.42774,-0.52148 -0.89984,-0.2452 -1.70281,-0.76096 -2.55468,-1.14063 0.39273,-3.02432 -0.20078,-6.35151 1.17773,-9.07227 0.42609,-0.84089 4.33843,-0.27148 5.44336,-0.17578 3.21212,0.27813 6.33148,0.20836 9.56836,0.1836 -0.0994,-0.18661 -0.18307,-0.38468 -0.28906,-0.56641 3.87155,-5.01201 3.92213,-5.25092 9.77539,-7.04492 0.84579,-0.18323 2.21402,-0.49206 3.29687,-0.55859 0.0809,-0.19925 0.20475,-0.52812 0.29102,-0.74024 -0.78022,0.24591 -1.56216,0.48882 -2.33985,0.74219 -3.37497,1.09098 -7.27647,1.65011 -10.67968,0.35156 -0.0856,0.008 -0.15597,-0.005 -0.17774,-0.0703 -0.32603,-0.13135 -0.64736,-0.27582 -0.96289,-0.44336 -0.55358,-0.29395 -2.18765,-1.12062 -1.56641,-1.04102 0.68864,0.0881 1.32099,0.39057 1.94922,0.70899 -0.22213,-1.02504 0.16926,-3.38228 -0.51953,-8.64649 -0.5277,0.22205 -1.06313,0.42076 -1.62304,0.52735 -0.59441,0.11282 1.49572,-1.49789 1.57812,-0.89844 0.0182,0.13244 0.0281,0.24217 0.0449,0.37109 0.52014,-0.21886 1.034,-0.46041 1.56055,-0.65625 0.20335,0.0711 0.40363,0.15228 0.60547,0.22852 0.57471,-0.0152 1.25324,-0.0138 2.19531,-0.0254 0.53412,-0.004 1.088,0.12698 1.60352,-0.0137 1.87797,-0.50925 3.57588,-1.54399 5.38867,-2.25 -0.10975,-0.0465 -0.22974,-0.0882 -0.33203,-0.13672 -0.194,0.1576 -0.27895,0.0729 -0.29688,-0.14453 -1.49257,-0.80048 -1.8896,-1.86311 0.58594,-3.45313 0.35523,-0.22817 0.66947,-0.55465 1.04883,-0.72656 0.99517,-1.22287 2.2834,-2.17312 3.55273,-3.13672 0.25722,-0.50726 0.7048,-1.1143 1.26953,-1.79883 -0.0296,-0.003 -0.0594,-0.007 -0.0898,-0.0117 -0.17044,0.009 -0.32674,0.012 -0.44531,0.006 -0.2131,-0.0127 -0.42231,-0.07 -0.63282,-0.10547 -0.002,-0.0137 -0.004,-0.0254 -0.006,-0.0391 -2.46727,-0.23006 -2.42652,-2.76857 0.125,-2.91992 0.0111,-0.006 0.0222,-0.0135 0.0332,-0.0195 0.009,-0.0115 0.0227,-0.0211 0.043,-0.0254 0.0992,-0.0488 0.18461,-0.0713 0.20508,0.0117 0.002,0.008 0.002,0.0139 0.004,0.0215 0.64983,-0.002 1.03253,-0.0254 1.27149,0.0117 0.17263,-9.5e-4 0.34494,-0.0117 0.51757,-0.0117 0.0114,-0.002 0.0199,-0.002 0.0312,-0.004 0.4629,-0.0715 0.92759,-0.39287 1.37891,-0.26757 0.96469,0.26781 1.61212,0.62102 2.05078,0.94531 0.0824,-0.0433 0.26478,-0.11341 0.41602,-0.17578 0.0277,-0.0272 0.0545,-0.0554 0.082,-0.082 -0.17323,-0.0757 -0.49657,-0.26024 -0.79102,-0.42188 -0.14161,0.0947 -0.28587,0.24985 -0.42969,0.1875 -0.10692,-0.0464 -0.12269,-0.17472 -0.13671,-0.30664 -0.0561,-0.0459 -0.093,-0.0986 -0.0801,-0.16601 0.0193,-0.10073 0.12581,-0.13171 0.24219,-0.15625 0.0193,-0.011 0.0614,-0.0335 0.0781,-0.043 0.007,-0.0901 0.0165,-0.17874 0.041,-0.26563 0.01,-0.034 0.0651,-0.0292 0.0957,-0.0469 0.17636,-0.10216 0.35072,-0.20747 0.52539,-0.3125 0.16668,-0.10024 0.32144,-0.22564 0.5,-0.30274 0.0345,-0.0149 0.069,-0.0284 0.10352,-0.043 -0.0207,-0.0555 0.005,-0.097 0.0605,-0.14257 -0.0838,0.006 -0.1642,-0.0107 -0.20312,-0.0957 -0.0272,-0.0594 -0.0192,-0.12534 -0.004,-0.1914 v -0.002 c -0.0167,-0.0289 -0.0317,-0.0585 -0.043,-0.0898 -0.0299,-0.0831 0.0384,-0.19438 0.0977,-0.27539 -7.3e-4,-0.002 -0.005,0.002 -0.006,0 -0.0441,-0.15809 -0.0116,-0.32692 -0.004,-0.49219 -0.005,-0.01 -0.009,-0.0195 -0.0137,-0.0293 -0.004,-0.008 0.004,-0.007 0.0156,-0.004 2.5e-4,-0.01 0.002,-0.0195 0.002,-0.0293 0.0681,-0.0248 0.13552,-0.0481 0.20312,-0.0742 0.0175,-0.007 0.0358,-0.0174 0.0527,-0.0254 0.004,0.0265 10e-4,0.0592 0,0.0918 10e-4,-2.6e-4 0.003,2.7e-4 0.004,0 0.01,-0.0643 0.0373,-0.11049 0.0996,-0.11524 0.0508,-0.004 0.0808,0.0247 0.0977,0.0703 0.007,-0.002 0.0144,-0.004 0.0215,-0.006 0.003,-0.01 0.005,-0.0206 0.008,-0.0293 0.003,-0.009 0.0164,0.0117 0.0254,0.0117 0.0173,0 0.0354,-7.6e-4 0.0527,-0.002 0.0181,-0.004 0.0366,-0.007 0.0547,-0.0117 0.15287,-0.0374 0.30462,-0.0797 0.45703,-0.11914 -0.0452,-0.0751 -0.0883,-0.15128 -0.12109,-0.23243 -0.009,-0.0214 0.0397,-0.0231 0.0605,-0.0332 0.0577,-0.0281 0.11709,-0.0559 0.17579,-0.082 0.0713,-0.0316 0.14333,-0.061 0.21484,-0.0918 -0.002,-0.0761 -0.002,-0.1526 0,-0.22851 2.1e-4,-0.007 0.01,-0.004 0.0195,-0.002 0,0 0.002,0 0.002,0 0.004,-0.002 0.0115,-0.002 0.0195,0 0.002,5.1e-4 0.004,-2.7e-4 0.006,0 0.0173,-0.004 0.0361,-0.0117 0.0391,0.002 h 0.008 c -10e-5,-0.0127 0.0244,0 0.0371,0 h 0.01 0.0801 c 0.0238,-0.003 0.0341,-0.0153 0.14258,-0.0547 0.19523,-0.0459 0.36057,-0.16045 0.53711,-0.24805 0.10981,-0.0544 0.21819,-0.0961 0.33398,-0.13086 0.1008,-0.0614 0.20175,-0.12239 0.30274,-0.18359 0.44719,-0.271 0.88793,-0.55336 1.33984,-0.81641 0.44457,-0.25878 0.89745,-0.50308 1.34766,-0.75195 -0.34637,-0.34193 -0.005,-0.322 0.44141,-0.23828 0.19679,-0.10569 0.39241,-0.21233 0.5957,-0.30469 0.28367,-0.12888 0.66397,-0.23661 0.47265,0.40235 6.1e-4,10e-4 9.6e-4,0.003 0.002,0.004 0.0129,0.029 0.003,0.0457 -0.0215,0.0566 -0.002,0.005 -0.002,0.009 -0.004,0.0137 -0.0318,0.0941 -0.5484,0.28716 -0.66211,0.34376 -0.14225,0.0708 -0.28016,0.15096 -0.41992,0.22656 -0.0417,0.0244 -0.0847,0.0468 -0.12696,0.0703 0.0727,-0.007 0.14825,-0.005 0.23047,0.008 0.0496,0.008 0.0951,0.0303 0.13867,0.0566 0.14832,-0.0786 0.29818,-0.15934 0.44532,-0.24023 0.0739,-0.0406 0.14439,-0.0855 0.21679,-0.12891 v -0.004 c 0.23689,-0.14213 0.42206,-0.0804 0.47656,0.0488 0.71241,-0.42351 1.11536,-0.63937 2.05665,-1.1582 0.075,-0.0179 0.18846,-0.10466 0.2539,-0.10547 0.0218,-2.7e-4 0.0389,0.009 0.0469,0.0332 0.0657,0.20181 0.072,0.35548 0.041,0.47656 0.0193,0.012 0.0397,0.0238 0.0586,0.0351 0.0283,0.017 -0.0209,0.0164 -0.0742,0.0156 -0.10781,0.28583 -0.46097,0.37757 -0.79883,0.54492 -0.16324,0.0809 -0.33449,0.1446 -0.5,0.2207 -0.0553,0.0254 -0.0649,0.0309 -0.10352,0.0488 7.1e-4,0.006 9.6e-4,0.0117 0.002,0.0176 0.0548,0.0519 0.10356,0.12432 0.14453,0.22461 0.0345,0.0844 -0.12472,0.0927 -0.23438,0.12109 -10e-4,0.002 -0.002,0.004 -0.004,0.006 -0.0222,0.0252 -0.10613,0.059 -0.21875,0.0937 -0.0756,0.0377 -0.13225,0.0662 -0.20313,0.10157 -0.0134,0.01 -0.0268,0.0199 -0.0391,0.0312 0.005,0.0364 9.4e-4,0.0723 -0.0156,0.10546 -0.005,0.01 -0.012,0.0179 -0.0176,0.0274 v 0.002 c -0.004,0.009 -0.009,0.0178 -0.0156,0.0254 -10e-4,0.002 -0.003,0.004 -0.004,0.006 -0.0915,0.12911 -0.24119,0.20084 -0.41796,0.24609 0.43816,0.19065 0.32763,0.27633 0.15625,0.46485 0.0203,0.0383 0.0331,0.0739 0.041,0.10547 0.0199,-0.0109 0.0411,-0.0176 0.0605,-0.0293 0.21518,-0.13087 0.3971,-0.31453 0.62305,-0.42578 1.18432,-0.58307 1.21242,-0.54115 2.2246,-0.59375 0.0342,-0.002 0.13267,-0.007 0.18946,-0.0117 0.0228,-0.0105 0.0456,-0.0188 0.0684,-0.0293 0.36308,-0.16764 0.70832,-0.37094 1.0625,-0.55664 0.52841,-0.22988 1.05753,-0.45958 1.58594,-0.68945 0.19564,0.0319 0.43601,-0.01 0.65429,-0.0117 0.21829,-0.002 0.41388,0.0314 0.51953,0.19922 0.15325,0.24345 0.24823,0.51424 0.30664,0.79883 0.51459,-0.1853 0.92184,-0.37949 3.95508,-1.625 3.77886,-1.5517 7.62005,-2.80697 11.13281,-4.97071 1.82195,-0.88947 3.62167,-1.82334 5.46485,-2.66796 0.8781,-0.40237 1.72826,-1.10951 2.69336,-1.07032 0.56558,0.023 1.12694,0.079 1.6875,0.15039 0.12373,-0.13649 0.33411,-0.28204 0.66406,-0.43945 2.85753,-1.76419 2.73446,-1.9593 6.63867,-2.79492 1.61711,-0.34625 3.41072,0.2809 5.05078,-0.0215 4.25807,-0.0115 8.51381,0.0974 12.77149,0.11523 1.01986,-0.15066 2.19626,-0.31936 3.32812,-0.27539 0.99779,0.0388 1.94951,0.26304 2.74219,0.78516 -0.15601,0.0795 -0.29072,0.35441 -0.4043,0.79296 0.33019,-0.0767 0.65959,-0.15581 0.99024,-0.23046 -0.095,-0.11393 -0.14705,-0.25817 -0.26563,-0.35547 -0.0989,-0.0812 -0.21093,-0.13798 -0.3164,-0.20703 0.22388,-0.10894 0.48101,0.14021 0.74023,0.52734 1.93672,-0.43502 3.88019,-0.83769 5.8418,-1.13281 0.32379,-0.0487 0.64981,-0.0729 0.97656,-0.082 0.98025,-0.0274 1.97082,0.082 2.95313,0.082 4.28897,0 6.68419,1.91061 7.18945,4.04687 1.6758,-6.30775 2.63281,-12.91228 2.63281,-19.76367 v -100.2168 c 0,-6.08258 -0.74452,-11.97494 -2.06641,-17.64062 -0.27538,-0.23522 -0.61446,-0.55228 -0.91992,-0.81446 -0.0793,-0.0365 -0.16673,-0.0757 -0.24219,-0.11132 -0.0914,0.45954 -0.17525,0.91869 -0.21874,1.375 0.0333,0.10796 0.0663,0.21628 0.0996,0.32421 0.21815,0.20016 0.29429,0.20868 0.0527,0.17188 -0.0177,-0.0572 -0.0351,-0.11466 -0.0527,-0.17188 -0.0876,-0.0804 -0.19226,-0.18635 -0.31836,-0.34179 -0.38192,-0.47219 -0.75675,-0.94938 -1.12109,-1.43555 -1.00171,-1.33667 -2.33513,-3.21752 -3.1875,-4.58594 -0.0632,-0.10139 -0.11982,-0.20776 -0.17383,-0.31445 -0.44316,-0.004 -0.89162,0.0344 -1.32422,-0.0547 -0.31514,-0.0649 -0.97949,-0.65424 -1.21484,-0.84375 -1.09262,-0.87981 -1.04489,-0.83826 -2.125,-1.69336 -0.0419,-0.0329 -0.0832,-0.0666 -0.125,-0.0996 -0.0635,-0.0499 -0.12807,-0.0984 -0.19141,-0.14843 -0.0563,-0.0445 -0.11182,-0.09 -0.16796,-0.13477 -0.75931,-0.60076 -1.51927,-1.20164 -2.29102,-1.78711 -0.25796,-0.12067 -0.53773,-0.19476 -0.80664,-0.29297 -0.53912,-0.33244 -1.07807,-0.6656 -1.61719,-0.99804 -0.59659,-0.42422 -1.13892,-0.91922 -1.71484,-1.3711 -2.69847,-2.11728 -2.15119,-1.6911 -4.56055,-3.44336 -1.02498,-0.74598 -1.34435,-1.57491 -1.25,-2.24414 -0.084,-0.0557 -0.16953,-0.11015 -0.25195,-0.16797 -0.60505,-0.42444 -1.07505,-1.0406 -1.74219,-1.38671 -0.27897,-0.3039 -0.57968,-0.58883 -0.83594,-0.91211 -0.52648,-0.66418 -0.43117,-0.90973 -1.0625,-1.55469 -0.24588,-0.25084 -0.57354,-0.40897 -0.83789,-0.64063 -0.61333,-0.53748 -0.95078,-0.85542 -1.25,-1.16406 -0.44249,-0.31097 -0.86625,-0.65019 -1.29883,-0.97461 -0.65896,-0.49423 -1.03839,-1.02813 -1.19921,-1.52734 -1.0408,-0.74906 -0.48701,-0.60462 -1.91602,-1.39063 -0.38624,-0.21245 -0.80966,-0.34823 -1.21484,-0.52148 -1.58578,-0.67963 -2.0309,-1.8209 -1.68164,-2.61914 -3.31948,-3.59919 -6.67957,-7.13234 -10.57422,-10.14649 -1.44442,-1.11786 -2.38829,-2.28685 -2.91797,-3.41015 -0.10153,-0.0418 -0.20779,-0.0717 -0.3086,-0.11524 -1.60443,-0.6935 -3.07963,-1.66333 -4.66992,-2.38867 -0.92388,-0.42137 -1.94595,-0.64205 -2.80859,-1.17773 -3.34225,-2.07544 -3.67239,-2.89788 -6.04102,-5.74024 -1.33498,-1.60198 -2.03664,-3.15033 -2.2539,-4.51953 -3.02106,-0.35439 -6.0799,-0.58789 -9.19922,-0.58789 z m 181.92579,206.06445 c -0.0865,0.0464 -0.17258,0.0937 -0.25977,0.13867 -0.0603,0.0336 -0.12126,0.0662 -0.18164,0.0996 0.0261,0.0258 0.0557,0.054 0.0898,0.084 0.0223,-0.0124 0.0444,-0.0243 0.0664,-0.0371 0.49113,-0.26313 0.49035,-0.26485 0.46289,-0.25 -0.0604,-0.0125 -0.11959,-0.0242 -0.17773,-0.0352 z m -6.1211,4.2207 c 0.0179,-0.0761 0.0462,-0.1533 0.0488,-0.22851 5e-4,-0.0148 -0.0292,0.0165 -0.0312,0.0312 -0.0147,0.12785 -0.0237,0.16666 -0.0176,0.19726 z m 0,0.002 c 0.005,0.0207 0.0172,0.0396 0.043,0.0781 0.003,0.002 0.007,0.009 0.006,0.006 -0.0149,-0.0291 -0.0324,-0.0556 -0.0488,-0.084 z M 450.88281,237.02734 c -0.0188,0.004 -0.0379,0.006 -0.0566,0.01 0.0287,-7e-4 0.0575,10e-4 0.0859,0 -0.008,-0.003 -0.0207,-0.007 -0.0293,-0.01 z m -29.88476,18.01954 c -0.0826,0.023 -0.15418,0.0414 -0.25,0.0703 -0.0782,0.0235 0.19128,0.014 0.23828,-0.0527 0.004,-0.006 0.008,-0.0118 0.0117,-0.0176 z m -13.58789,7.88085 c -0.0196,0.0143 -0.039,0.0288 -0.0586,0.043 0.051,0.0505 0.11175,0.11598 0.1543,0.15625 -0.0341,-0.0651 -0.0641,-0.13271 -0.0957,-0.19922 z m -16.45313,144.11915 v 1.59179 c 0,5.27801 0.55798,10.41345 1.5625,15.38281 0.40862,0.0724 0.81253,0.16584 1.2207,0.24024 0.7736,-0.89702 1.717,-1.96862 2.89454,-3.33399 0.0454,-0.0526 0.0963,-0.0806 0.14843,-0.0976 -0.0244,-0.16462 -0.008,-0.326 0.10742,-0.48047 0.0944,-0.12658 0.15698,-0.20988 0.24805,-0.33203 -1.36361,-2.79891 -0.60603,-5.25544 1.22071,-6.31836 -1.08224,-2.17292 -1.12117,-2.41379 -1.8086,-5.10547 -0.41307,-0.16389 -0.835,-0.30331 -1.24609,-0.47266 0.11985,0.0295 0.46959,0.14297 0.35937,0.0879 -0.2913,-0.14688 -0.59209,-0.28463 -0.9082,-0.36523 -0.72291,-0.18441 -1.46926,-0.26456 -2.19727,-0.42773 -1.1728,-0.26287 -1.17835,-0.2729 -1.60156,-0.36914 z m 322.92969,18.96874 c -0.0988,0.0182 -0.34811,0.034 -0.36133,0.084 0.12028,-0.0287 0.24101,-0.0554 0.36133,-0.084 z m -249.80664,0.4375 c 0.13269,0.008 0.18885,0.0857 0.22851,0.17579 0.007,-0.0214 0.0127,-0.0431 0.0195,-0.0645 -0.0738,-0.0324 -0.15894,-0.0723 -0.24804,-0.11133 z m 0.22851,0.17579 c -0.0385,0.12551 -0.0741,0.25227 -0.10937,0.3789 0.0477,0.033 0.0951,0.0664 0.14258,0.0996 0.0222,-0.12863 0.0337,-0.27093 0.0312,-0.42969 -4.4e-4,-0.0341 -0.0533,-0.0236 -0.0645,-0.0488 z M 732,432.0957 c -1.17339,1.21527 -3.19482,2.08203 -6.07812,2.08203 -5.07088,0 -4.45371,-0.12499 -8.45704,0.97461 -0.10736,0.28581 -0.71731,0.36401 -1.01757,0.57813 -1.11236,0.79323 -2.15435,1.68975 -3.31641,2.4082 -2.37049,1.46557 -3.88874,2.35545 -5.2168,3.04688 0.26365,0.28908 0.54272,0.53187 0.78321,0.83007 0.13734,-0.002 0.27476,-0.002 0.41211,-0.004 7.23441,-1.98569 14.45932,-4.01108 21.65624,-6.12891 0.46249,-1.23858 0.83111,-2.52053 1.23438,-3.78711 z m -266.31641,0.81836 c -0.11251,0.12249 -0.2031,0.21949 -0.35937,0.39844 -0.007,0.0198 -0.0109,0.0303 -0.0176,0.0488 0.17724,0.12747 0.35182,0.29143 0.53125,0.38672 0.55364,0.29403 1.04832,0.6043 1.49219,0.92773 -0.0189,-0.0227 -0.0399,-0.0435 -0.0586,-0.0664 -0.42221,-0.51525 -0.56856,-0.85318 -1.08203,-1.33008 -0.15236,-0.14151 -0.33108,-0.25115 -0.50586,-0.36524 z m 217.07422,0.95508 c 1.13427,0.85607 2.55234,1.55014 2.9375,2.86914 0.22341,0.76505 -1.49424,0.55817 -2.21679,0.89453 -0.26317,0.12251 -0.52173,0.25483 -0.78321,0.38086 1.49404,-0.31206 3.25806,-0.65474 6.41016,-1.28515 0.38125,-0.0763 0.70006,-0.065 1.05664,-0.10547 0.89159,-0.4285 1.73442,-0.81314 3.39258,-1.56836 1.32994,-0.65119 1.28583,-0.62251 1.88867,-0.91211 -0.65493,0.0144 -1.30981,0.0333 -1.96484,0.041 -0.65718,0.008 -1.33392,-0.15441 -1.97266,-0.002 -0.28154,0.0682 -0.39617,0.42466 -0.60352,0.62695 -0.17683,0.17252 -0.36602,0.33187 -0.54882,0.49805 -0.24387,0.1638 -0.4421,0.54586 -0.73047,0.49024 -2.33337,-0.45402 -4.59718,-1.21241 -6.86524,-1.92774 z m -213.77734,1.48047 c -0.0498,-9.3e-4 -0.0508,0.086 -0.0762,0.12891 -0.13063,0.2213 -0.18599,0.36497 -0.18555,0.45117 0.031,0.034 0.0539,0.0694 0.084,0.10351 0.2227,0.0383 0.84779,-0.32523 1.37696,-0.54297 -0.28678,-0.0649 -0.67115,-0.13084 -1.19922,-0.14062 z m 182.49609,3.29297 c -0.005,-0.002 -0.002,0.0186 0.002,0.0156 0.003,-0.002 0.007,-0.006 0.01,-0.008 -0.004,-0.002 -0.008,-0.006 -0.0117,-0.008 z m -0.28711,0.0605 c 8e-4,0.0137 -9.1e-4,0.0272 0,0.041 0.001,-5.2e-4 0.003,-8e-4 0.004,-0.002 0.015,-0.008 0.0299,-0.0156 0.0449,-0.0234 -2.5e-4,-0.006 2.7e-4,-0.01 0,-0.0156 -0.0164,3e-5 -0.0324,1.2e-4 -0.0488,0 z m 0,0.041 c -0.0216,0.008 -0.043,0.017 -0.0644,0.0254 4.5e-4,0.003 0.002,0.005 0.002,0.008 0.0209,-0.011 0.0416,-0.0223 0.0625,-0.0332 z m 0.0742,0.18359 c -0.002,0.002 0.002,0.007 0.006,0.0117 0.005,-0.004 0.009,-0.008 0.0137,-0.0117 -0.009,-10e-4 -0.0175,-0.002 -0.0195,0 z m -5.35156,0.41211 c -0.002,0.001 -0.004,0.003 -0.006,0.004 0.007,0.051 -1.5e-4,0.11423 -0.01,0.17969 0.0174,-0.007 0.0353,-0.014 0.0527,-0.0215 -0.0185,-0.059 -0.035,-0.11583 -0.0371,-0.16211 z m -173.61133,1.14454 c 0.30549,0.13237 0.61679,0.25161 0.92383,0.38085 -0.0526,-0.0481 -0.0929,-0.10939 -0.14844,-0.15429 -0.20937,-0.16928 -1.02229,-0.33398 -0.77539,-0.22656 z m 233.99024,1.48632 c -0.0536,0.0247 -0.11987,0.0516 -0.17383,0.0762 0.0514,-5.9e-4 0.10291,-0.002 0.15429,-0.002 0.01,-0.0318 0.0101,-0.044 0.0195,-0.0742 z M 470.2207,457.33789 c -0.11556,-0.007 -0.26503,0.0359 -0.41601,0.0762 -0.009,0.10705 -0.0501,0.14835 -0.0625,0.24805 0.24124,0.18242 0.47693,0.37471 0.71093,0.58203 0.0218,-0.26872 0.0611,-0.54006 -0.0469,-0.78516 -0.0367,-0.0829 -0.10211,-0.1162 -0.18555,-0.12109 z m 155.93555,0.80078 c -0.11877,-0.0705 0.25909,0.10887 0.36523,0.19727 0.0688,0.0573 0.057,0.20766 0.14454,0.22656 0.1726,0.0372 0.27348,0.0372 0.42187,0.0625 -0.2853,-0.15031 -0.7237,-0.36289 -0.93164,-0.48633 z m -148.21875,3.87305 c -0.10435,-0.006 -0.20676,0.0128 -0.30469,0.0625 0.25353,0.11668 0.50072,0.2394 0.73438,0.37305 3.08715,1.76582 5.54326,6.25498 -2.70313,8.69726 -0.64887,1.22235 -1.48196,2.34177 -2.41406,3.38477 0.0621,0.16479 0.10348,0.33506 0.13086,0.50976 0.0132,0.002 0.0572,0.007 0.0625,0.008 0.26358,0.0616 0.50382,0.19817 0.75586,0.29687 3.78464,1.48251 -5.65656,2.42519 -2.16211,3.59961 2.45787,-0.44351 0.96911,0.2527 0.64258,0.20117 -0.16687,-0.0263 -0.32468,-0.0993 -0.48633,-0.14844 -0.0584,-0.0177 -0.10378,-0.0351 -0.15625,-0.0527 -0.13627,0.0246 -0.23475,0.0383 -0.39649,0.0703 -0.17302,-0.14502 -0.37516,-0.28191 -0.58007,-0.42187 0.0733,0.10558 0.1435,0.21285 0.21093,0.32226 2.48141,2.44242 4.96463,4.88289 7.44532,7.32617 h 15.98632 c -0.89487,-1.45219 -1.73737,-2.80047 -3.28515,-5.30273 -1.04137,-1.67996 -8.57487,-13.84768 -10.57617,-17.0293 -0.19804,-0.31483 -0.40393,-0.64134 -0.60157,-0.95898 0.0207,0.25008 0.0416,0.4996 0.0723,0.77734 -0.77471,-0.42313 -1.64456,-1.67468 -2.375,-1.71484 z m 150.99414,8.95312 c -0.30307,0.0199 -0.52697,0.0712 -0.33594,0.0547 0.33419,-0.029 0.6701,0.003 1.00586,0.0274 -0.17309,-0.0736 -0.43039,-0.0977 -0.66992,-0.082 z m -155.49414,4.57618 c 0.0334,0.40343 0.0589,0.81021 0.20508,1.18164 0.0903,0.22946 0.0615,-0.41942 0.14258,-0.71485 -0.11949,-0.15312 -0.23469,-0.30858 -0.34766,-0.46679 z m 138.64062,0.49609 c -0.55731,0.0239 -2.74918,0.11389 0.006,0.38477 z m 14.26172,9.85351 c -0.97221,0.11777 -1.92876,0.24433 -2.90625,0.34961 h 2.8418 c 0.0145,-0.11417 0.0376,-0.23149 0.0644,-0.34961 z" />
    <path
       sodipodi:type="star"
       style="fill:#ffd5d5;stroke:#ffcc00"
       id="path11786"
       inkscape:flatsided="false"
       sodipodi:sides="5"
       sodipodi:cx="-744.41632"
       sodipodi:cy="304.51392"
       sodipodi:r1="129.55976"
       sodipodi:r2="59.819427"
       sodipodi:arg1="0.86052532"
       sodipodi:arg2="1.4888439"
       inkscape:rounded="0"
       inkscape:randomized="0"
       d="m -659.93827,402.74421 -79.58119,-38.61163 -72.21426,51.07956 12.1299,-87.61785 -70.89499,-52.8954 87.07788,-15.53918 28.39875,-83.77072 41.68718,78.01411 88.44639,1.12225 -61.31378,63.75455 z"
       inkscape:transform-center-x="3.9461682"
       inkscape:transform-center-y="10.524779"
       transform="matrix(1.2040629,0,0,-1.1423392,1215.9745,714.86298)" />
    <path
       id="path11786-7"
       style="fill:#ffd5d5;stroke:#ffcc00;stroke-width:1.1728"
       inkscape:transform-center-x="3.946206"
       inkscape:transform-center-y="10.524745"
       d="m 463.56836,424.10938 14.60547,100.08789 -85.36133,60.42578 104.84766,17.75 34.19336,95.69531 50.19336,-89.11914 106.49609,-1.28125 -73.82617,-72.83008 31.62304,-96.48633 -95.82031,44.10742 z" />
    <path
       id="path11786-5"
       style="fill:#ffd5d5;stroke:#ffcc00;stroke-width:1.1728"
       inkscape:transform-center-x="3.9462041"
       inkscape:transform-center-y="10.524788"
       d="m 717.09766,277.83789 14.60546,100.08984 -85.36328,60.42383 104.84766,17.75 34.19336,95.69532 50.19531,-89.11915 106.49414,-1.28125 -73.82617,-72.83007 31.625,-96.48633 -95.82226,44.10742 z" />
    <path
       sodipodi:type="star"
       style="fill:#ffd5d5;stroke:#ffcc00"
       id="path11786-9"
       inkscape:flatsided="false"
       sodipodi:sides="5"
       sodipodi:cx="265.2218"
       sodipodi:cy="465.6116"
       sodipodi:r1="129.55975"
       sodipodi:r2="59.819427"
       sodipodi:arg1="0.86052532"
       sodipodi:arg2="1.4888439"
       inkscape:rounded="0"
       inkscape:randomized="0"
       inkscape:transform-center-x="3.9462058"
       inkscape:transform-center-y="10.524786"
       d="m 349.69985,563.84189 -79.58119,-38.61163 -72.21426,51.07957 12.1299,-87.61786 -70.89499,-52.89539 87.07788,-15.53918 28.39875,-83.77072 41.68719,78.01411 88.44638,1.12224 -61.31378,63.75456 z"
       transform="matrix(1.2040629,0,0,-1.1423392,253.83472,752.62002)" />
  </g>
</svg>
